<svg width="32" height="32" viewBox="0 0 32 32" fill="none" xmlns="http://www.w3.org/2000/svg">
<path fill-rule="evenodd" clip-rule="evenodd" d="M4.66699 15.9997C4.66699 15.6315 4.96547 15.333 5.33366 15.333H26.667C27.0352 15.333 27.3337 15.6315 27.3337 15.9997C27.3337 16.3679 27.0352 16.6663 26.667 16.6663H5.33366C4.96547 16.6663 4.66699 16.3679 4.66699 15.9997Z" fill="#745F5F"/>
<path fill-rule="evenodd" clip-rule="evenodd" d="M18.1953 7.52827C18.4556 7.26792 18.8777 7.26792 19.1381 7.52827L27.1381 15.5283C27.3984 15.7886 27.3984 16.2107 27.1381 16.4711L19.1381 24.4711C18.8777 24.7314 18.4556 24.7314 18.1953 24.4711C17.9349 24.2107 17.9349 23.7886 18.1953 23.5283L25.7239 15.9997L18.1953 8.47108C17.9349 8.21073 17.9349 7.78862 18.1953 7.52827Z" fill="#745F5F"/>
</svg>
