<svg width="208" height="35" viewBox="0 0 208 35" fill="none" xmlns="http://www.w3.org/2000/svg">
<g clip-path="url(#clip0_1_498)">
<path fill-rule="evenodd" clip-rule="evenodd" d="M0 0.5H27.2387V18.6224H18.1591V27.6835H0V0.5ZM32.6865 24.0591H23.6069V33.1203H32.6865V24.0591Z" fill="black"/>
<path d="M47.4409 7.74805H59.7196C60.7339 7.74805 61.5887 7.79405 62.2839 7.88609C62.9862 7.97103 63.5643 8.102 64.0182 8.27898C64.4722 8.45596 64.8199 8.67541 65.061 8.93733C65.3092 9.19926 65.4901 9.50719 65.6036 9.86115C65.7171 10.2151 65.781 10.6115 65.7951 11.0504C65.8165 11.4893 65.827 11.9742 65.827 12.5052C65.827 13.0573 65.8129 13.567 65.7845 14.0343C65.7632 14.5015 65.6816 14.9262 65.5398 15.3085C65.4049 15.6837 65.1851 16.0164 64.8801 16.3066C64.5821 16.5898 64.153 16.8269 63.5927 17.0181C63.0393 17.2092 62.3335 17.3543 61.4752 17.4534C60.624 17.5525 59.5743 17.6021 58.3258 17.6021H49.4838V24.0582H47.4409V7.74805ZM49.4838 15.9031H58.3258C59.2338 15.9031 59.9962 15.889 60.6134 15.8606C61.2376 15.8252 61.7519 15.7651 62.1562 15.6801C62.5605 15.5952 62.8727 15.4748 63.0926 15.3191C63.3124 15.1634 63.472 14.9581 63.5713 14.7032C63.6778 14.4484 63.7381 14.144 63.7522 13.79C63.7736 13.429 63.7842 13.0007 63.7842 12.5052C63.7842 12.045 63.7736 11.6486 63.7522 11.3159C63.7381 10.9832 63.6778 10.7036 63.5713 10.477C63.472 10.2505 63.3124 10.07 63.0926 9.93548C62.8727 9.80097 62.5605 9.69832 62.1562 9.62753C61.7519 9.54967 61.2376 9.50012 60.6134 9.47888C59.9962 9.45764 59.2338 9.44703 58.3258 9.44703H49.4838V15.9031Z" fill="black"/>
<path d="M68.5508 24.0582V7.74805H84.894V9.44703H70.5937V14.8837H84.213V16.5827H70.5937V22.3591H84.894V24.0582H68.5508Z" fill="black"/>
<path d="M89.6606 24.0582H87.6177V7.74805H91.2033L106.185 22.0195V7.74805H108.227V24.0582H105.504L89.6606 9.44703V24.0582Z" fill="black"/>
<path d="M127.646 7.74805H130.71L119.134 15.7332L131.051 24.0582H127.986L117.091 16.5827H114.367V24.0582H112.324V7.74805H114.367V14.8837H117.091L127.646 7.74805Z" fill="black"/>
<path d="M146.724 7.4082C147.972 7.4082 149.022 7.48606 149.873 7.6418C150.731 7.79047 151.437 8.02054 151.991 8.33202C152.544 8.63641 152.969 9.02222 153.267 9.48943C153.565 9.95665 153.782 10.5053 153.916 11.1353C154.058 11.7654 154.14 12.4768 154.161 13.2696C154.189 14.0625 154.204 14.9403 154.204 15.903C154.204 16.8658 154.189 17.7436 154.161 18.5364C154.14 19.3293 154.058 20.0408 153.916 20.6707C153.782 21.3008 153.565 21.8494 153.267 22.3167C152.969 22.7839 152.544 23.1733 151.991 23.4847C151.437 23.789 150.731 24.0156 149.873 24.1643C149.022 24.32 147.972 24.3978 146.724 24.3978H140.574C139.325 24.3978 138.272 24.32 137.414 24.1643C136.562 24.0156 135.86 23.789 135.307 23.4847C134.754 23.1733 134.324 22.7839 134.019 22.3167C133.722 21.8494 133.501 21.3008 133.36 20.6707C133.225 20.0408 133.147 19.3293 133.126 18.5364C133.104 17.7436 133.094 16.8658 133.094 15.903C133.094 14.9403 133.104 14.0625 133.126 13.2696C133.147 12.4768 133.225 11.7654 133.36 11.1353C133.501 10.5053 133.722 9.95665 134.019 9.48943C134.324 9.02222 134.754 8.63641 135.307 8.33202C135.86 8.02054 136.562 7.79047 137.414 7.6418C138.272 7.48606 139.325 7.4082 140.574 7.4082H146.724ZM146.724 22.6989C147.625 22.6989 148.384 22.6742 149.001 22.6246C149.625 22.5679 150.139 22.4582 150.544 22.2954C150.948 22.1325 151.26 21.899 151.48 21.5946C151.7 21.2902 151.859 20.8867 151.959 20.384C152.058 19.8815 152.115 19.2656 152.129 18.5364C152.15 17.8002 152.161 16.9224 152.161 15.903C152.161 14.8837 152.15 14.0094 152.129 13.2803C152.115 12.544 152.058 11.9246 151.959 11.422C151.859 10.9194 151.7 10.5159 151.48 10.2115C151.26 9.9071 150.948 9.6735 150.544 9.51067C150.146 9.34785 149.635 9.24166 149.011 9.19211C148.394 9.13549 147.632 9.10717 146.724 9.10717H140.574C139.666 9.10717 138.9 9.13549 138.275 9.19211C137.658 9.24166 137.148 9.34785 136.743 9.51067C136.339 9.6735 136.027 9.9071 135.807 10.2115C135.587 10.5159 135.427 10.9194 135.328 11.422C135.229 11.9246 135.172 12.544 135.158 13.2803C135.144 14.0094 135.137 14.8837 135.137 15.903C135.137 16.9224 135.144 17.8002 135.158 18.5364C135.179 19.2656 135.24 19.8815 135.339 20.384C135.438 20.8867 135.594 21.2902 135.807 21.5946C136.027 21.899 136.339 22.1325 136.743 22.2954C137.148 22.4582 137.658 22.5679 138.275 22.6246C138.9 22.6742 139.666 22.6989 140.574 22.6989H146.724Z" fill="black"/>
<path d="M174.292 7.74805H176.676L167.823 24.0582H165.099L156.247 7.74805H158.63L166.461 22.699L174.292 7.74805Z" fill="black"/>
<path d="M184.166 7.74805H186.208V24.0582H184.166V7.74805Z" fill="black"/>
<path d="M208 7.74805V9.44703H199.829V24.0582H197.784V9.44703H189.613V7.74805H208Z" fill="black"/>
</g>
<defs>
<clipPath id="clip0_1_498">
<rect width="208" height="34" fill="white" transform="translate(0 0.5)"/>
</clipPath>
</defs>
</svg>
