<svg width="789" height="129" viewBox="0 0 789 129" fill="none" xmlns="http://www.w3.org/2000/svg">
<path fill-rule="evenodd" clip-rule="evenodd" d="M0 0H103.324V68.7584H68.8824V103.138H0V0ZM123.989 89.3861H89.5474V123.765H123.989V89.3861Z" fill="black"/>
<path d="M179.955 27.5039H226.531C230.379 27.5039 233.621 27.6785 236.258 28.0276C238.923 28.3499 241.116 28.8469 242.837 29.5183C244.559 30.1898 245.878 31.0224 246.793 32.0162C247.734 33.01 248.421 34.1783 248.851 35.5213C249.282 36.8642 249.524 38.3683 249.578 40.0335C249.658 41.6988 249.699 43.5386 249.699 45.553C249.699 47.648 249.645 49.5818 249.537 51.3545C249.456 53.1272 249.147 54.7387 248.609 56.189C248.097 57.6126 247.264 58.8749 246.107 59.9761C244.976 61.0505 243.349 61.9502 241.223 62.6754C239.124 63.4006 236.447 63.9512 233.191 64.3272C229.962 64.7033 225.98 64.8913 221.244 64.8913H187.704V89.3867H179.955V27.5039ZM187.704 58.4452H221.244C224.689 58.4452 227.581 58.3915 229.922 58.2841C232.29 58.1498 234.24 57.9214 235.774 57.5991C237.308 57.2768 238.492 56.8202 239.326 56.2294C240.16 55.6385 240.765 54.8596 241.142 53.8926C241.546 52.9257 241.775 51.7708 241.828 50.4279C241.909 49.058 241.949 47.4331 241.949 45.553C241.949 43.8072 241.909 42.3031 241.828 41.0407C241.775 39.7784 241.546 38.7175 241.142 37.858C240.765 36.9985 240.16 36.3136 239.326 35.8033C238.492 35.2929 237.308 34.9035 235.774 34.6349C234.24 34.3395 232.29 34.1515 229.922 34.0709C227.581 33.9903 224.689 33.95 221.244 33.95H187.704V58.4452Z" fill="black"/>
<path d="M260.031 89.3867V27.5039H322.026V33.95H267.78V54.5775H319.442V61.0236H267.78V82.9401H322.026V89.3867H260.031Z" fill="black"/>
<path d="M340.108 89.3867H332.358V27.5039H345.96L402.788 81.6515V27.5039H410.537V89.3867H400.205L340.108 33.95V89.3867Z" fill="black"/>
<path d="M484.195 27.5039H495.819L451.906 57.8006L497.11 89.3867H485.486L444.157 61.0236H433.824V89.3867H426.075V27.5039H433.824V54.5775H444.157L484.195 27.5039Z" fill="black"/>
<path d="M556.562 26.2148C561.298 26.2148 565.28 26.5103 568.509 27.1011C571.765 27.6652 574.442 28.5381 576.541 29.7199C578.64 30.8748 580.254 32.3386 581.384 34.1113C582.514 35.8839 583.335 37.9655 583.846 40.356C584.385 42.7464 584.694 45.4457 584.774 48.4538C584.882 51.462 584.936 54.7926 584.936 58.4453C584.936 62.0981 584.882 65.4286 584.774 68.4365C584.694 71.445 584.385 74.1445 583.846 76.5343C583.335 78.9249 582.514 81.0066 581.384 82.7793C580.254 84.552 578.64 86.0294 576.541 87.2108C574.442 88.3657 571.765 89.2252 568.509 89.7894C565.28 90.3801 561.298 90.6755 556.562 90.6755H533.234C528.498 90.6755 524.502 90.3801 521.246 89.7894C518.018 89.2252 515.354 88.3657 513.255 87.2108C511.157 86.0294 509.528 84.552 508.371 82.7793C507.242 81.0066 506.407 78.9249 505.869 76.5343C505.358 74.1445 505.062 71.445 504.981 68.4365C504.9 65.4286 504.86 62.0981 504.86 58.4453C504.86 54.7926 504.9 51.462 504.981 48.4538C505.062 45.4457 505.358 42.7464 505.869 40.356C506.407 37.9655 507.242 35.8839 508.371 34.1113C509.528 32.3386 511.157 30.8748 513.255 29.7199C515.354 28.5381 518.018 27.6652 521.246 27.1011C524.502 26.5103 528.498 26.2148 533.234 26.2148H556.562ZM556.562 84.2295C559.979 84.2295 562.859 84.1358 565.2 83.9478C567.567 83.7325 569.518 83.3164 571.052 82.6985C572.586 82.0807 573.769 81.1946 574.604 80.0398C575.438 78.8849 576.043 77.3538 576.42 75.4467C576.797 73.5402 577.012 71.2033 577.065 68.4365C577.146 65.6434 577.186 62.313 577.186 58.4453C577.186 54.5777 577.146 51.2606 577.065 48.4942C577.012 45.7008 576.797 43.3507 576.42 41.4437C576.043 39.5367 575.438 38.0058 574.604 36.8509C573.769 35.6959 572.586 34.8096 571.052 34.1919C569.545 33.5741 567.608 33.1712 565.24 32.9832C562.899 32.7684 560.007 32.6609 556.562 32.6609H533.234C529.79 32.6609 526.884 32.7684 524.516 32.9832C522.175 33.1712 520.238 33.5741 518.704 34.1919C517.17 34.8096 515.987 35.6959 515.152 36.8509C514.318 38.0058 513.713 39.5367 513.336 41.4437C512.959 43.3507 512.744 45.7008 512.69 48.4942C512.636 51.2606 512.61 54.5777 512.61 58.4453C512.61 62.313 512.636 65.6434 512.69 68.4365C512.771 71.2033 513 73.5402 513.376 75.4467C513.753 77.3538 514.345 78.8849 515.152 80.0398C515.987 81.1946 517.17 82.0807 518.704 82.6985C520.238 83.3164 522.175 83.7325 524.516 83.9478C526.884 84.1358 529.79 84.2295 533.234 84.2295H556.562Z" fill="black"/>
<path d="M661.137 27.5039H670.178L636.598 89.3867H626.266L592.686 27.5039H601.726L631.432 84.2294L661.137 27.5039Z" fill="black"/>
<path d="M698.592 27.5039H706.339V89.3867H698.592V27.5039Z" fill="black"/>
<path d="M789 27.5039V33.95H758.004V89.3867H750.25V33.95H719.255V27.5039H789Z" fill="black"/>
</svg>
